# xmcd
#
# Track frame offsets: 
#        150
#        11103
#        21492
#        30393
#        42890
#        51809
#        61122
#        75469
#        86625
#        95408
#        103898
#        115058
#        127156
#        137607
#
# Disc length: 1987 seconds
#
# Revision: 2
# Processed by: cddbd v1.5.1PL2 Copyright (c) Steve Scherf et al.
# Submitted via: ExactAudioCopy v0.95b3
#
DISCID=b307c10e
DTITLE=Ivan Mladek - Mladek zpiva Sveraka a naopak
DYEAR=2004
DGENRE=Country
TTITLE0=Lada jede lodi
TTITLE1=Dasa jedla cukrovi
TTITLE2=Jahody trhala
TTITLE3=Svagr ma bagr
TTITLE4=Navstivil jsem psychiatra
TTITLE5=Svatebni holinky
TTITLE6=Kousava deka
TTITLE7=V jadru
TTITLE8=Parozi
TTITLE9=Mravenci v kredenci
TTITLE10=Poustevnicky bal
TTITLE11=Svadlenka Madlenka
TTITLE12=Az pujdes spat
TTITLE13=Divka s modou matraci
EXTD=
EXTT0=
EXTT1=
EXTT2=
EXTT3=
EXTT4=
EXTT5=
EXTT6=
EXTT7=
EXTT8=
EXTT9=
EXTT10=
EXTT11=
EXTT12=
EXTT13=
PLAYORDER=
